<mxfile host="app.diagrams.net" agent="Mozilla/5.0 (Windows NT 10.0; Win64; x64) AppleWebKit/537.36 (KHTML, like Gecko) Chrome/140.0.0.0 Safari/537.36" version="28.2.5">
  <diagram name="Page-1" id="3zXfmYanh7eGdWzNL5VJ">
    <mxGraphModel dx="4710" dy="3043" grid="1" gridSize="10" guides="1" tooltips="1" connect="1" arrows="1" fold="1" page="1" pageScale="1" pageWidth="850" pageHeight="1100" math="0" shadow="0">
      <root>
        <mxCell id="0" />
        <mxCell id="1" parent="0" />
        <mxCell id="dHYVEczdk2FGWJeY0932-1" value="" style="whiteSpace=wrap;strokeWidth=2;fillColor=#dae8fc;strokeColor=#6c8ebf;fontStyle=5;fontSize=20;fontColor=light-dark(#46C7FF,#EDEDED);sketch=1;curveFitting=1;jiggle=2;" parent="1" vertex="1">
          <mxGeometry x="267.5" y="100" width="2852.5" height="270" as="geometry" />
        </mxCell>
        <mxCell id="rRjDVniPgA6kYD6IJ34l-15" style="edgeStyle=orthogonalEdgeStyle;rounded=0;orthogonalLoop=1;jettySize=auto;html=1;entryX=0.5;entryY=0;entryDx=0;entryDy=0;curved=1;sketch=1;curveFitting=1;jiggle=2;" parent="1" source="dHYVEczdk2FGWJeY0932-2" target="dHYVEczdk2FGWJeY0932-3" edge="1">
          <mxGeometry relative="1" as="geometry">
            <Array as="points">
              <mxPoint x="1567" y="-170" />
              <mxPoint x="1430" y="-170" />
              <mxPoint x="1430" y="-120" />
            </Array>
          </mxGeometry>
        </mxCell>
        <mxCell id="dHYVEczdk2FGWJeY0932-2" value="客服指标体系" style="whiteSpace=wrap;strokeWidth=2;fillColor=#dae8fc;strokeColor=#6c8ebf;fontStyle=1;fontSize=35;sketch=1;curveFitting=1;jiggle=2;" parent="1" vertex="1">
          <mxGeometry x="1440" y="-240" width="253" height="54" as="geometry" />
        </mxCell>
        <mxCell id="rRjDVniPgA6kYD6IJ34l-18" style="edgeStyle=orthogonalEdgeStyle;rounded=0;orthogonalLoop=1;jettySize=auto;html=1;entryX=0.5;entryY=0;entryDx=0;entryDy=0;curved=1;sketch=1;curveFitting=1;jiggle=2;" parent="1" source="dHYVEczdk2FGWJeY0932-3" target="dHYVEczdk2FGWJeY0932-5" edge="1">
          <mxGeometry relative="1" as="geometry" />
        </mxCell>
        <mxCell id="rRjDVniPgA6kYD6IJ34l-34" style="edgeStyle=orthogonalEdgeStyle;rounded=0;orthogonalLoop=1;jettySize=auto;html=1;entryX=0.5;entryY=0;entryDx=0;entryDy=0;curved=1;sketch=1;curveFitting=1;jiggle=2;exitX=0.5;exitY=1;exitDx=0;exitDy=0;" parent="1" source="dHYVEczdk2FGWJeY0932-3" target="rRjDVniPgA6kYD6IJ34l-33" edge="1">
          <mxGeometry relative="1" as="geometry" />
        </mxCell>
        <mxCell id="rRjDVniPgA6kYD6IJ34l-56" style="edgeStyle=orthogonalEdgeStyle;rounded=0;orthogonalLoop=1;jettySize=auto;html=1;entryX=0.5;entryY=0;entryDx=0;entryDy=0;curved=1;sketch=1;curveFitting=1;jiggle=2;exitX=0.5;exitY=1;exitDx=0;exitDy=0;" parent="1" source="dHYVEczdk2FGWJeY0932-3" target="dHYVEczdk2FGWJeY0932-4" edge="1">
          <mxGeometry relative="1" as="geometry">
            <Array as="points">
              <mxPoint x="1331" y="-76" />
              <mxPoint x="1331" y="-60" />
              <mxPoint x="1116" y="-60" />
            </Array>
          </mxGeometry>
        </mxCell>
        <mxCell id="dHYVEczdk2FGWJeY0932-3" value="解决率 30%" style="whiteSpace=wrap;strokeWidth=2;fontStyle=1;fontSize=20;sketch=1;curveFitting=1;jiggle=2;" parent="1" vertex="1">
          <mxGeometry x="1251" y="-130" width="249" height="54" as="geometry" />
        </mxCell>
        <mxCell id="rRjDVniPgA6kYD6IJ34l-25" style="edgeStyle=orthogonalEdgeStyle;rounded=0;orthogonalLoop=1;jettySize=auto;html=1;entryX=0.5;entryY=0;entryDx=0;entryDy=0;curved=1;sketch=1;curveFitting=1;jiggle=2;exitX=0.5;exitY=1;exitDx=0;exitDy=0;" parent="1" source="dHYVEczdk2FGWJeY0932-4" target="rRjDVniPgA6kYD6IJ34l-24" edge="1">
          <mxGeometry relative="1" as="geometry" />
        </mxCell>
        <mxCell id="dHYVEczdk2FGWJeY0932-4" value="首问解决率 50%" style="whiteSpace=wrap;strokeWidth=2;fontStyle=1;fontSize=20;sketch=1;curveFitting=1;jiggle=2;" parent="1" vertex="1">
          <mxGeometry x="1030" y="-14" width="171" height="54" as="geometry" />
        </mxCell>
        <mxCell id="rRjDVniPgA6kYD6IJ34l-26" style="edgeStyle=orthogonalEdgeStyle;rounded=0;orthogonalLoop=1;jettySize=auto;html=1;entryX=0.5;entryY=0;entryDx=0;entryDy=0;curved=1;sketch=1;curveFitting=1;jiggle=2;" parent="1" source="dHYVEczdk2FGWJeY0932-5" target="rRjDVniPgA6kYD6IJ34l-24" edge="1">
          <mxGeometry relative="1" as="geometry" />
        </mxCell>
        <mxCell id="dHYVEczdk2FGWJeY0932-5" value="24/48/72小时内解决率 30%" style="whiteSpace=wrap;strokeWidth=2;fontStyle=1;fontSize=20;sketch=1;curveFitting=1;jiggle=2;" parent="1" vertex="1">
          <mxGeometry x="1225" y="-14" width="259" height="54" as="geometry" />
        </mxCell>
        <mxCell id="rRjDVniPgA6kYD6IJ34l-7" style="edgeStyle=orthogonalEdgeStyle;rounded=0;orthogonalLoop=1;jettySize=auto;html=1;curved=1;sketch=1;curveFitting=1;jiggle=2;" parent="1" source="dHYVEczdk2FGWJeY0932-8" edge="1">
          <mxGeometry relative="1" as="geometry">
            <mxPoint x="621" y="-14" as="targetPoint" />
          </mxGeometry>
        </mxCell>
        <mxCell id="dHYVEczdk2FGWJeY0932-8" value="人效指标 40%" style="whiteSpace=wrap;strokeWidth=2;fontStyle=1;fontSize=20;sketch=1;curveFitting=1;jiggle=2;" parent="1" vertex="1">
          <mxGeometry x="565" y="-120" width="155" height="54" as="geometry" />
        </mxCell>
        <mxCell id="dHYVEczdk2FGWJeY0932-9" value="完成量 / 待处理量 40%" style="whiteSpace=wrap;strokeWidth=2;fontStyle=1;fontSize=20;sketch=1;curveFitting=1;jiggle=2;" parent="1" vertex="1">
          <mxGeometry x="240" y="-14" width="258" height="54" as="geometry" />
        </mxCell>
        <mxCell id="rRjDVniPgA6kYD6IJ34l-13" style="edgeStyle=orthogonalEdgeStyle;rounded=0;orthogonalLoop=1;jettySize=auto;html=1;entryX=0.5;entryY=0;entryDx=0;entryDy=0;curved=1;sketch=1;curveFitting=1;jiggle=2;" parent="1" source="dHYVEczdk2FGWJeY0932-11" target="rRjDVniPgA6kYD6IJ34l-10" edge="1">
          <mxGeometry relative="1" as="geometry" />
        </mxCell>
        <mxCell id="dHYVEczdk2FGWJeY0932-11" value="客服资源调配" style="whiteSpace=wrap;strokeWidth=2;fontStyle=1;fontSize=20;sketch=1;curveFitting=1;jiggle=2;" parent="1" vertex="1">
          <mxGeometry x="540" y="140" width="156" height="54" as="geometry" />
        </mxCell>
        <mxCell id="dHYVEczdk2FGWJeY0932-12" value="服务质量主观评分 10%" style="whiteSpace=wrap;strokeWidth=2;fontStyle=1;fontSize=20;sketch=1;curveFitting=1;jiggle=2;" parent="1" vertex="1">
          <mxGeometry x="1940.5" y="-120" width="219" height="54" as="geometry" />
        </mxCell>
        <mxCell id="dHYVEczdk2FGWJeY0932-13" value="是否友好耐心 33%" style="whiteSpace=wrap;strokeWidth=2;fontStyle=1;fontSize=20;sketch=1;curveFitting=1;jiggle=2;" parent="1" vertex="1">
          <mxGeometry x="1710" y="-14" width="187" height="54" as="geometry" />
        </mxCell>
        <mxCell id="dHYVEczdk2FGWJeY0932-14" value="专业知识是否充足 33%" style="whiteSpace=wrap;strokeWidth=2;fontStyle=1;fontSize=20;sketch=1;curveFitting=1;jiggle=2;" parent="1" vertex="1">
          <mxGeometry x="1940.5" y="-14" width="219" height="54" as="geometry" />
        </mxCell>
        <mxCell id="dHYVEczdk2FGWJeY0932-15" value="客服语言能力 33%" style="whiteSpace=wrap;strokeWidth=2;fontStyle=1;fontSize=20;sketch=1;curveFitting=1;jiggle=2;" parent="1" vertex="1">
          <mxGeometry x="2200" y="-14" width="187" height="54" as="geometry" />
        </mxCell>
        <mxCell id="dHYVEczdk2FGWJeY0932-16" value="统计分析&#xa;&#xa;1. 直方图直观查看分数分布&#xa;2. 均分快速了解整体水平&#xa;3. 中位数检查分布偏态&#xa;4. 识别极端体验" style="whiteSpace=wrap;strokeWidth=2;fontStyle=1;fontSize=20;sketch=1;curveFitting=1;jiggle=2;" parent="1" vertex="1">
          <mxGeometry x="1906.5" y="168" width="287" height="162" as="geometry" />
        </mxCell>
        <mxCell id="dHYVEczdk2FGWJeY0932-17" value="投诉与异常 10%" style="whiteSpace=wrap;strokeWidth=2;fontStyle=1;fontSize=20;sketch=1;curveFitting=1;jiggle=2;" parent="1" vertex="1">
          <mxGeometry x="2714" y="-120" width="171" height="54" as="geometry" />
        </mxCell>
        <mxCell id="dHYVEczdk2FGWJeY0932-18" value="重复来电率/跨渠道联系率 60%" style="whiteSpace=wrap;strokeWidth=2;fontStyle=1;fontSize=20;sketch=1;curveFitting=1;jiggle=2;" parent="1" vertex="1">
          <mxGeometry x="2431.5" y="-14" width="274" height="54" as="geometry" />
        </mxCell>
        <mxCell id="dHYVEczdk2FGWJeY0932-107" value="" style="edgeStyle=orthogonalEdgeStyle;rounded=0;hachureGap=4;orthogonalLoop=1;jettySize=auto;html=1;fontFamily=Architects Daughter;fontSource=https%3A%2F%2Ffonts.googleapis.com%2Fcss%3Ffamily%3DArchitects%2BDaughter;fontSize=20;sketch=1;curveFitting=1;jiggle=2;" parent="1" source="dHYVEczdk2FGWJeY0932-19" target="dHYVEczdk2FGWJeY0932-106" edge="1">
          <mxGeometry relative="1" as="geometry" />
        </mxCell>
        <mxCell id="dHYVEczdk2FGWJeY0932-19" value="UID Tracking链接完整用户链路" style="whiteSpace=wrap;strokeWidth=2;fontStyle=1;fontSize=20;sketch=1;curveFitting=1;jiggle=2;" parent="1" vertex="1">
          <mxGeometry x="2502.5" y="161" width="149" height="54" as="geometry" />
        </mxCell>
        <mxCell id="dHYVEczdk2FGWJeY0932-20" value="差评率 20%" style="whiteSpace=wrap;strokeWidth=2;fontStyle=1;fontSize=20;sketch=1;curveFitting=1;jiggle=2;" parent="1" vertex="1">
          <mxGeometry x="2730" y="-14" width="139" height="54" as="geometry" />
        </mxCell>
        <mxCell id="dHYVEczdk2FGWJeY0932-21" value="合理设计指标权重" style="whiteSpace=wrap;strokeWidth=2;fontStyle=1;fontSize=20;sketch=1;curveFitting=1;jiggle=2;" parent="1" vertex="1">
          <mxGeometry x="2842.5" y="161" width="156" height="54" as="geometry" />
        </mxCell>
        <mxCell id="dHYVEczdk2FGWJeY0932-22" value="投诉率 20%" style="whiteSpace=wrap;strokeWidth=2;fontStyle=1;fontSize=20;sketch=1;curveFitting=1;jiggle=2;" parent="1" vertex="1">
          <mxGeometry x="2895" y="-14" width="139" height="54" as="geometry" />
        </mxCell>
        <mxCell id="dHYVEczdk2FGWJeY0932-24" value="&lt;70%: 人力浪费 " style="whiteSpace=wrap;strokeWidth=2;fontStyle=1;fontSize=20;sketch=1;curveFitting=1;jiggle=2;fillColor=#ffe6cc;strokeColor=#d79b00;" parent="1" vertex="1">
          <mxGeometry x="329" y="256" width="186" height="78" as="geometry" />
        </mxCell>
        <mxCell id="dHYVEczdk2FGWJeY0932-25" value="用户没有渠道/精力打差评投诉" style="whiteSpace=wrap;strokeWidth=2;fontStyle=1;fontSize=20;sketch=1;curveFitting=1;jiggle=2;" parent="1" vertex="1">
          <mxGeometry x="2785.5" y="265" width="270" height="78" as="geometry" />
        </mxCell>
        <mxCell id="dHYVEczdk2FGWJeY0932-31" value="" style="curved=1;startArrow=none;endArrow=block;exitX=0;exitY=0.5;entryX=0.5;entryY=0;rounded=0;fontStyle=1;fontSize=20;sketch=1;curveFitting=1;jiggle=2;exitDx=0;exitDy=0;" parent="1" source="dHYVEczdk2FGWJeY0932-2" target="dHYVEczdk2FGWJeY0932-8" edge="1">
          <mxGeometry relative="1" as="geometry">
            <Array as="points">
              <mxPoint x="1007" y="-121" />
            </Array>
          </mxGeometry>
        </mxCell>
        <mxCell id="dHYVEczdk2FGWJeY0932-32" value="" style="curved=1;startArrow=none;endArrow=block;exitX=0.07;exitY=1;entryX=0.5;entryY=0;rounded=0;fontStyle=1;fontSize=20;sketch=1;curveFitting=1;jiggle=2;" parent="1" source="dHYVEczdk2FGWJeY0932-8" target="dHYVEczdk2FGWJeY0932-9" edge="1">
          <mxGeometry relative="1" as="geometry">
            <Array as="points">
              <mxPoint x="514" y="-41" />
            </Array>
          </mxGeometry>
        </mxCell>
        <mxCell id="dHYVEczdk2FGWJeY0932-33" value="" style="curved=1;startArrow=none;endArrow=block;exitX=0.93;exitY=1;entryX=0.5;entryY=0;rounded=0;fontStyle=1;fontSize=20;entryDx=0;entryDy=0;sketch=1;curveFitting=1;jiggle=2;" parent="1" source="dHYVEczdk2FGWJeY0932-8" edge="1">
          <mxGeometry relative="1" as="geometry">
            <Array as="points">
              <mxPoint x="771" y="-41" />
            </Array>
            <mxPoint x="833.5" y="-14" as="targetPoint" />
          </mxGeometry>
        </mxCell>
        <mxCell id="dHYVEczdk2FGWJeY0932-34" value="" style="curved=1;startArrow=none;endArrow=block;exitX=0.5;exitY=1;entryX=0.5;entryY=0;rounded=0;fontStyle=1;fontSize=20;exitDx=0;exitDy=0;sketch=1;curveFitting=1;jiggle=2;" parent="1" target="dHYVEczdk2FGWJeY0932-11" edge="1">
          <mxGeometry relative="1" as="geometry">
            <Array as="points" />
            <mxPoint x="621" y="40" as="sourcePoint" />
          </mxGeometry>
        </mxCell>
        <mxCell id="dHYVEczdk2FGWJeY0932-35" value="" style="curved=1;startArrow=none;endArrow=block;entryX=0.5;entryY=0;rounded=0;fontStyle=1;fontSize=20;sketch=1;curveFitting=1;jiggle=2;" parent="1" target="dHYVEczdk2FGWJeY0932-12" edge="1">
          <mxGeometry relative="1" as="geometry">
            <Array as="points">
              <mxPoint x="1609" y="-121" />
            </Array>
            <mxPoint x="1567" y="-180" as="sourcePoint" />
          </mxGeometry>
        </mxCell>
        <mxCell id="dHYVEczdk2FGWJeY0932-36" value="" style="curved=1;startArrow=none;endArrow=block;exitX=0;exitY=0.92;entryX=0.5;entryY=0;rounded=0;fontStyle=1;fontSize=20;sketch=1;curveFitting=1;jiggle=2;" parent="1" source="dHYVEczdk2FGWJeY0932-12" target="dHYVEczdk2FGWJeY0932-13" edge="1">
          <mxGeometry relative="1" as="geometry">
            <Array as="points">
              <mxPoint x="1796.5" y="-17" />
            </Array>
          </mxGeometry>
        </mxCell>
        <mxCell id="dHYVEczdk2FGWJeY0932-37" value="" style="curved=1;startArrow=none;endArrow=block;exitX=0.5;exitY=1;entryX=0.5;entryY=0;rounded=0;fontStyle=1;fontSize=20;sketch=1;curveFitting=1;jiggle=2;" parent="1" source="dHYVEczdk2FGWJeY0932-12" target="dHYVEczdk2FGWJeY0932-14" edge="1">
          <mxGeometry relative="1" as="geometry">
            <Array as="points" />
          </mxGeometry>
        </mxCell>
        <mxCell id="dHYVEczdk2FGWJeY0932-38" value="" style="curved=1;startArrow=none;endArrow=block;exitX=1;exitY=0.92;entryX=0.5;entryY=0;rounded=0;fontStyle=1;fontSize=20;sketch=1;curveFitting=1;jiggle=2;" parent="1" source="dHYVEczdk2FGWJeY0932-12" target="dHYVEczdk2FGWJeY0932-15" edge="1">
          <mxGeometry relative="1" as="geometry">
            <Array as="points">
              <mxPoint x="2302.5" y="-17" />
            </Array>
          </mxGeometry>
        </mxCell>
        <mxCell id="dHYVEczdk2FGWJeY0932-39" value="" style="curved=1;startArrow=none;endArrow=block;exitX=0.5;exitY=1;entryX=0;entryY=0.26;rounded=0;fontStyle=1;fontSize=20;sketch=1;curveFitting=1;jiggle=2;" parent="1" source="dHYVEczdk2FGWJeY0932-13" target="dHYVEczdk2FGWJeY0932-16" edge="1">
          <mxGeometry relative="1" as="geometry">
            <Array as="points">
              <mxPoint x="1796.5" y="136" />
            </Array>
          </mxGeometry>
        </mxCell>
        <mxCell id="dHYVEczdk2FGWJeY0932-40" value="" style="curved=1;startArrow=none;endArrow=block;exitX=0.5;exitY=1;entryX=0.5;entryY=0;rounded=0;fontStyle=1;fontSize=20;sketch=1;curveFitting=1;jiggle=2;" parent="1" source="dHYVEczdk2FGWJeY0932-14" target="dHYVEczdk2FGWJeY0932-16" edge="1">
          <mxGeometry relative="1" as="geometry">
            <Array as="points" />
          </mxGeometry>
        </mxCell>
        <mxCell id="dHYVEczdk2FGWJeY0932-41" value="" style="curved=1;startArrow=none;endArrow=block;exitX=0.5;exitY=1;entryX=1;entryY=0.26;rounded=0;fontStyle=1;fontSize=20;sketch=1;curveFitting=1;jiggle=2;" parent="1" source="dHYVEczdk2FGWJeY0932-15" target="dHYVEczdk2FGWJeY0932-16" edge="1">
          <mxGeometry relative="1" as="geometry">
            <Array as="points">
              <mxPoint x="2302.5" y="136" />
            </Array>
          </mxGeometry>
        </mxCell>
        <mxCell id="dHYVEczdk2FGWJeY0932-42" value="" style="curved=1;startArrow=none;endArrow=block;exitX=1;exitY=0.56;entryX=0.5;entryY=0;rounded=0;fontStyle=1;fontSize=20;sketch=1;curveFitting=1;jiggle=2;" parent="1" source="dHYVEczdk2FGWJeY0932-2" target="dHYVEczdk2FGWJeY0932-17" edge="1">
          <mxGeometry relative="1" as="geometry">
            <Array as="points">
              <mxPoint x="2386" y="-121" />
            </Array>
          </mxGeometry>
        </mxCell>
        <mxCell id="dHYVEczdk2FGWJeY0932-43" value="" style="curved=1;startArrow=none;endArrow=block;exitX=0;exitY=0.83;entryX=0.5;entryY=0;rounded=0;fontStyle=1;fontSize=20;sketch=1;curveFitting=1;jiggle=2;" parent="1" source="dHYVEczdk2FGWJeY0932-17" target="dHYVEczdk2FGWJeY0932-18" edge="1">
          <mxGeometry relative="1" as="geometry">
            <Array as="points">
              <mxPoint x="2576.5" y="-17" />
            </Array>
          </mxGeometry>
        </mxCell>
        <mxCell id="dHYVEczdk2FGWJeY0932-44" value="" style="curved=1;startArrow=none;endArrow=block;exitX=0.5;exitY=1;entryX=0.5;entryY=0;rounded=0;fontStyle=1;fontSize=20;sketch=1;curveFitting=1;jiggle=2;" parent="1" source="dHYVEczdk2FGWJeY0932-18" target="dHYVEczdk2FGWJeY0932-19" edge="1">
          <mxGeometry relative="1" as="geometry">
            <Array as="points" />
          </mxGeometry>
        </mxCell>
        <mxCell id="dHYVEczdk2FGWJeY0932-45" value="" style="curved=1;startArrow=none;endArrow=block;exitX=0.5;exitY=1;entryX=0.5;entryY=0;rounded=0;fontStyle=1;fontSize=20;sketch=1;curveFitting=1;jiggle=2;" parent="1" source="dHYVEczdk2FGWJeY0932-17" target="dHYVEczdk2FGWJeY0932-20" edge="1">
          <mxGeometry relative="1" as="geometry">
            <Array as="points" />
          </mxGeometry>
        </mxCell>
        <mxCell id="dHYVEczdk2FGWJeY0932-46" value="" style="curved=1;startArrow=none;endArrow=block;exitX=0.5;exitY=1;entryX=0.19;entryY=0;rounded=0;fontStyle=1;fontSize=20;sketch=1;curveFitting=1;jiggle=2;" parent="1" source="dHYVEczdk2FGWJeY0932-20" target="dHYVEczdk2FGWJeY0932-21" edge="1">
          <mxGeometry relative="1" as="geometry">
            <Array as="points">
              <mxPoint x="2826.5" y="136" />
            </Array>
          </mxGeometry>
        </mxCell>
        <mxCell id="dHYVEczdk2FGWJeY0932-47" value="" style="curved=1;startArrow=none;endArrow=block;exitX=1;exitY=0.94;entryX=0.5;entryY=0;rounded=0;fontStyle=1;fontSize=20;sketch=1;curveFitting=1;jiggle=2;" parent="1" source="dHYVEczdk2FGWJeY0932-17" target="dHYVEczdk2FGWJeY0932-22" edge="1">
          <mxGeometry relative="1" as="geometry">
            <Array as="points">
              <mxPoint x="3015.5" y="-17" />
            </Array>
          </mxGeometry>
        </mxCell>
        <mxCell id="dHYVEczdk2FGWJeY0932-48" value="" style="curved=1;startArrow=none;endArrow=block;exitX=0.5;exitY=1;entryX=0.82;entryY=0;rounded=0;fontStyle=1;fontSize=20;sketch=1;curveFitting=1;jiggle=2;" parent="1" source="dHYVEczdk2FGWJeY0932-22" target="dHYVEczdk2FGWJeY0932-21" edge="1">
          <mxGeometry relative="1" as="geometry">
            <Array as="points">
              <mxPoint x="3015.5" y="136" />
            </Array>
          </mxGeometry>
        </mxCell>
        <mxCell id="dHYVEczdk2FGWJeY0932-50" value="" style="curved=1;startArrow=none;endArrow=block;exitX=0.5;exitY=1;entryX=0.5;entryY=0;rounded=0;fontStyle=1;fontSize=20;sketch=1;curveFitting=1;jiggle=2;" parent="1" source="dHYVEczdk2FGWJeY0932-11" target="dHYVEczdk2FGWJeY0932-24" edge="1">
          <mxGeometry relative="1" as="geometry">
            <Array as="points" />
          </mxGeometry>
        </mxCell>
        <mxCell id="dHYVEczdk2FGWJeY0932-51" value="" style="curved=1;startArrow=none;endArrow=block;exitX=0.5;exitY=1;entryX=0.5;entryY=0;rounded=0;fontStyle=1;fontSize=20;sketch=1;curveFitting=1;jiggle=2;" parent="1" source="dHYVEczdk2FGWJeY0932-21" target="dHYVEczdk2FGWJeY0932-25" edge="1">
          <mxGeometry relative="1" as="geometry">
            <Array as="points" />
          </mxGeometry>
        </mxCell>
        <mxCell id="dHYVEczdk2FGWJeY0932-99" style="edgeStyle=orthogonalEdgeStyle;rounded=0;hachureGap=4;orthogonalLoop=1;jettySize=auto;html=1;entryX=0;entryY=0.5;entryDx=0;entryDy=0;fontFamily=Architects Daughter;fontSource=https%3A%2F%2Ffonts.googleapis.com%2Fcss%3Ffamily%3DArchitects%2BDaughter;fontSize=20;sketch=1;curveFitting=1;jiggle=2;" parent="1" source="dHYVEczdk2FGWJeY0932-97" target="dHYVEczdk2FGWJeY0932-1" edge="1">
          <mxGeometry relative="1" as="geometry" />
        </mxCell>
        <mxCell id="dHYVEczdk2FGWJeY0932-97" value="&lt;font&gt;&lt;b style=&quot;background-color: light-dark(#ffffff, var(--ge-dark-color, #121212));&quot;&gt;衍生分析&lt;/b&gt;&lt;/font&gt;" style="rounded=1;whiteSpace=wrap;html=1;hachureGap=4;fontFamily=Architects Daughter;fontSource=https%3A%2F%2Ffonts.googleapis.com%2Fcss%3Ffamily%3DArchitects%2BDaughter;fillColor=#dae8fc;strokeColor=#6c8ebf;fontSize=20;sketch=1;curveFitting=1;jiggle=2;" parent="1" vertex="1">
          <mxGeometry x="100" y="118" width="120" height="234" as="geometry" />
        </mxCell>
        <mxCell id="dHYVEczdk2FGWJeY0932-106" value="利用SHAP模型进行复杂归因" style="rounded=1;whiteSpace=wrap;html=1;fontSize=20;strokeWidth=2;fontStyle=1;fillColor=#ffe6cc;strokeColor=#d79b00;sketch=1;curveFitting=1;jiggle=2;" parent="1" vertex="1">
          <mxGeometry x="2496.63" y="265" width="160.75" height="60" as="geometry" />
        </mxCell>
        <mxCell id="dHYVEczdk2FGWJeY0932-109" value="&lt;i style=&quot;color: rgb(175, 8, 8);&quot;&gt;*Trip.com官网：目前72小时解决率已达90%&lt;/i&gt;" style="text;html=1;align=center;verticalAlign=middle;whiteSpace=wrap;rounded=0;fontFamily=Architects Daughter;fontSource=https%3A%2F%2Ffonts.googleapis.com%2Fcss%3Ffamily%3DArchitects%2BDaughter;fontSize=18;sketch=1;curveFitting=1;jiggle=2;" parent="1" vertex="1">
          <mxGeometry x="1190" y="44" width="354.5" height="30" as="geometry" />
        </mxCell>
        <mxCell id="rRjDVniPgA6kYD6IJ34l-9" value="Utilization 50% " style="whiteSpace=wrap;strokeWidth=2;fontStyle=1;fontSize=20;sketch=1;curveFitting=1;jiggle=2;" parent="1" vertex="1">
          <mxGeometry x="540" y="-14" width="155" height="54" as="geometry" />
        </mxCell>
        <mxCell id="rRjDVniPgA6kYD6IJ34l-10" value="70-85%： 平衡" style="whiteSpace=wrap;strokeWidth=2;fontStyle=1;fontSize=20;sketch=1;curveFitting=1;jiggle=2;fillColor=#d5e8d4;strokeColor=#82b366;" parent="1" vertex="1">
          <mxGeometry x="525" y="256" width="186" height="78" as="geometry" />
        </mxCell>
        <mxCell id="rRjDVniPgA6kYD6IJ34l-11" value="&gt;90%: 人力紧张，影响服务质量和员工满意度 " style="whiteSpace=wrap;strokeWidth=2;fontStyle=1;fontSize=20;sketch=1;curveFitting=1;jiggle=2;fillColor=#f8cecc;strokeColor=#b85450;" parent="1" vertex="1">
          <mxGeometry x="731.5" y="256" width="240" height="78" as="geometry" />
        </mxCell>
        <mxCell id="rRjDVniPgA6kYD6IJ34l-20" style="edgeStyle=orthogonalEdgeStyle;rounded=0;orthogonalLoop=1;jettySize=auto;html=1;entryX=0.483;entryY=-0.011;entryDx=0;entryDy=0;entryPerimeter=0;curved=1;sketch=1;curveFitting=1;jiggle=2;exitX=0.558;exitY=1.111;exitDx=0;exitDy=0;exitPerimeter=0;" parent="1" source="dHYVEczdk2FGWJeY0932-11" target="rRjDVniPgA6kYD6IJ34l-11" edge="1">
          <mxGeometry relative="1" as="geometry" />
        </mxCell>
        <mxCell id="rRjDVniPgA6kYD6IJ34l-21" value="平均服务时长 5%" style="whiteSpace=wrap;strokeWidth=2;fontStyle=1;fontSize=20;sketch=1;curveFitting=1;jiggle=2;" parent="1" vertex="1">
          <mxGeometry x="720" y="-14" width="210" height="54" as="geometry" />
        </mxCell>
        <mxCell id="rRjDVniPgA6kYD6IJ34l-28" value="" style="edgeStyle=orthogonalEdgeStyle;rounded=0;orthogonalLoop=1;jettySize=auto;html=1;curved=1;sketch=1;curveFitting=1;jiggle=2;" parent="1" source="rRjDVniPgA6kYD6IJ34l-24" target="rRjDVniPgA6kYD6IJ34l-27" edge="1">
          <mxGeometry relative="1" as="geometry" />
        </mxCell>
        <mxCell id="rRjDVniPgA6kYD6IJ34l-57" style="edgeStyle=orthogonalEdgeStyle;rounded=0;orthogonalLoop=1;jettySize=auto;html=1;entryX=0.5;entryY=0;entryDx=0;entryDy=0;curved=1;sketch=1;curveFitting=1;jiggle=2;" parent="1" source="rRjDVniPgA6kYD6IJ34l-24" target="rRjDVniPgA6kYD6IJ34l-29" edge="1">
          <mxGeometry relative="1" as="geometry" />
        </mxCell>
        <mxCell id="rRjDVniPgA6kYD6IJ34l-24" value="复盘 &amp; 提高" style="whiteSpace=wrap;strokeWidth=2;fontStyle=1;fontSize=20;sketch=1;curveFitting=1;jiggle=2;" parent="1" vertex="1">
          <mxGeometry x="1174" y="146" width="171" height="54" as="geometry" />
        </mxCell>
        <mxCell id="rRjDVniPgA6kYD6IJ34l-27" value="内部AI知识库快速检索" style="whiteSpace=wrap;strokeWidth=2;fontStyle=1;fontSize=20;sketch=1;curveFitting=1;jiggle=2;" parent="1" vertex="1">
          <mxGeometry x="1090" y="268" width="210" height="54" as="geometry" />
        </mxCell>
        <mxCell id="rRjDVniPgA6kYD6IJ34l-29" value="定期培训" style="whiteSpace=wrap;strokeWidth=2;fontStyle=1;fontSize=20;sketch=1;curveFitting=1;jiggle=2;" parent="1" vertex="1">
          <mxGeometry x="1315" y="268" width="111" height="54" as="geometry" />
        </mxCell>
        <mxCell id="rRjDVniPgA6kYD6IJ34l-30" value="艾森豪威尔矩阵" style="whiteSpace=wrap;strokeWidth=2;fontStyle=1;fontSize=20;sketch=1;curveFitting=1;jiggle=2;" parent="1" vertex="1">
          <mxGeometry x="1500" y="140" width="171" height="60" as="geometry" />
        </mxCell>
        <mxCell id="rRjDVniPgA6kYD6IJ34l-36" style="edgeStyle=orthogonalEdgeStyle;rounded=0;orthogonalLoop=1;jettySize=auto;html=1;curved=1;" parent="1" source="rRjDVniPgA6kYD6IJ34l-33" target="rRjDVniPgA6kYD6IJ34l-24" edge="1">
          <mxGeometry relative="1" as="geometry">
            <Array as="points">
              <mxPoint x="1586" y="100" />
              <mxPoint x="1379" y="100" />
            </Array>
          </mxGeometry>
        </mxCell>
        <mxCell id="rRjDVniPgA6kYD6IJ34l-37" style="edgeStyle=orthogonalEdgeStyle;rounded=0;orthogonalLoop=1;jettySize=auto;html=1;entryX=0.5;entryY=0;entryDx=0;entryDy=0;curved=1;sketch=1;curveFitting=1;jiggle=2;" parent="1" source="rRjDVniPgA6kYD6IJ34l-33" target="rRjDVniPgA6kYD6IJ34l-30" edge="1">
          <mxGeometry relative="1" as="geometry" />
        </mxCell>
        <mxCell id="rRjDVniPgA6kYD6IJ34l-33" value="未解决损失 20%" style="whiteSpace=wrap;strokeWidth=2;fontStyle=1;fontSize=20;sketch=1;curveFitting=1;jiggle=2;" parent="1" vertex="1">
          <mxGeometry x="1500" y="-14" width="171" height="54" as="geometry" />
        </mxCell>
        <mxCell id="rRjDVniPgA6kYD6IJ34l-42" value="" style="shape=table;startSize=0;container=1;collapsible=0;childLayout=tableLayout;fontSize=20;sketch=1;curveFitting=1;jiggle=2;fontStyle=1" parent="1" vertex="1">
          <mxGeometry x="1465" y="230" width="260" height="113" as="geometry" />
        </mxCell>
        <mxCell id="rRjDVniPgA6kYD6IJ34l-43" value="" style="shape=tableRow;horizontal=0;startSize=0;swimlaneHead=0;swimlaneBody=0;strokeColor=inherit;top=0;left=0;bottom=0;right=0;collapsible=0;dropTarget=0;fillColor=none;points=[[0,0.5],[1,0.5]];portConstraint=eastwest;fontSize=20;fontStyle=1" parent="rRjDVniPgA6kYD6IJ34l-42" vertex="1">
          <mxGeometry width="260" height="57" as="geometry" />
        </mxCell>
        <mxCell id="rRjDVniPgA6kYD6IJ34l-44" value="紧急重要&lt;span style=&quot;white-space: pre;&quot;&gt;&#x9;&lt;/span&gt;" style="shape=partialRectangle;html=1;whiteSpace=wrap;connectable=0;strokeColor=#82b366;overflow=hidden;fillColor=#d5e8d4;top=0;left=0;bottom=0;right=0;pointerEvents=1;fontSize=20;fontStyle=1" parent="rRjDVniPgA6kYD6IJ34l-43" vertex="1">
          <mxGeometry width="130" height="57" as="geometry">
            <mxRectangle width="130" height="57" as="alternateBounds" />
          </mxGeometry>
        </mxCell>
        <mxCell id="rRjDVniPgA6kYD6IJ34l-45" value="紧急不重要" style="shape=partialRectangle;html=1;whiteSpace=wrap;connectable=0;strokeColor=#d79b00;overflow=hidden;fillColor=#ffe6cc;top=0;left=0;bottom=0;right=0;pointerEvents=1;fontSize=20;fontStyle=1" parent="rRjDVniPgA6kYD6IJ34l-43" vertex="1">
          <mxGeometry x="130" width="130" height="57" as="geometry">
            <mxRectangle width="130" height="57" as="alternateBounds" />
          </mxGeometry>
        </mxCell>
        <mxCell id="rRjDVniPgA6kYD6IJ34l-47" value="" style="shape=tableRow;horizontal=0;startSize=0;swimlaneHead=0;swimlaneBody=0;strokeColor=inherit;top=0;left=0;bottom=0;right=0;collapsible=0;dropTarget=0;fillColor=none;points=[[0,0.5],[1,0.5]];portConstraint=eastwest;fontSize=20;fontStyle=1" parent="rRjDVniPgA6kYD6IJ34l-42" vertex="1">
          <mxGeometry y="57" width="260" height="56" as="geometry" />
        </mxCell>
        <mxCell id="rRjDVniPgA6kYD6IJ34l-48" value="重要非紧急" style="shape=partialRectangle;html=1;whiteSpace=wrap;connectable=0;strokeColor=#d79b00;overflow=hidden;fillColor=#ffe6cc;top=0;left=0;bottom=0;right=0;pointerEvents=1;fontSize=20;fontStyle=1" parent="rRjDVniPgA6kYD6IJ34l-47" vertex="1">
          <mxGeometry width="130" height="56" as="geometry">
            <mxRectangle width="130" height="56" as="alternateBounds" />
          </mxGeometry>
        </mxCell>
        <mxCell id="rRjDVniPgA6kYD6IJ34l-49" value="非紧急不重要" style="shape=partialRectangle;html=1;whiteSpace=wrap;connectable=0;strokeColor=#b85450;overflow=hidden;fillColor=#f8cecc;top=0;left=0;bottom=0;right=0;pointerEvents=1;fontSize=20;fontStyle=1" parent="rRjDVniPgA6kYD6IJ34l-47" vertex="1">
          <mxGeometry x="130" width="130" height="56" as="geometry">
            <mxRectangle width="130" height="56" as="alternateBounds" />
          </mxGeometry>
        </mxCell>
        <mxCell id="rRjDVniPgA6kYD6IJ34l-55" style="edgeStyle=orthogonalEdgeStyle;rounded=0;orthogonalLoop=1;jettySize=auto;html=1;entryX=0.525;entryY=0.008;entryDx=0;entryDy=0;entryPerimeter=0;curved=1;sketch=1;curveFitting=1;jiggle=2;" parent="1" source="rRjDVniPgA6kYD6IJ34l-30" target="rRjDVniPgA6kYD6IJ34l-43" edge="1">
          <mxGeometry relative="1" as="geometry" />
        </mxCell>
        <mxCell id="rRjDVniPgA6kYD6IJ34l-58" value="&lt;font&gt;&lt;span&gt;**** 所有指标右侧的 % 为其模拟权重，并非实际“率”或“比值”&lt;/span&gt;&lt;/font&gt;" style="text;html=1;align=center;verticalAlign=middle;resizable=0;points=[];autosize=1;strokeColor=none;fillColor=none;sketch=1;curveFitting=1;jiggle=2;fontColor=light-dark(#e51515, #ededed);fontSize=24;fontStyle=1" parent="1" vertex="1">
          <mxGeometry x="50" y="-240" width="660" height="40" as="geometry" />
        </mxCell>
      </root>
    </mxGraphModel>
  </diagram>
</mxfile>
